<svg width="35" height="27" viewBox="0 0 35 27" fill="none" xmlns="http://www.w3.org/2000/svg">
<path d="M22.6765 12.7383L15.364 7.86331C15.2262 7.77141 15.0661 7.71865 14.9007 7.71067C14.7353 7.70269 14.5709 7.73979 14.4249 7.81801C14.279 7.89623 14.157 8.01262 14.0721 8.15476C13.9871 8.2969 13.9424 8.45944 13.9426 8.62503V18.375C13.9424 18.5406 13.9871 18.7032 14.0721 18.8453C14.157 18.9874 14.279 19.1038 14.4249 19.1821C14.5709 19.2603 14.7353 19.2974 14.9007 19.2894C15.0661 19.2814 15.2262 19.2287 15.364 19.1367L22.6765 14.2617C22.8022 14.1784 22.9053 14.0652 22.9766 13.9323C23.048 13.7994 23.0853 13.6509 23.0853 13.5C23.0853 13.3492 23.048 13.2007 22.9766 13.0678C22.9053 12.9349 22.8022 12.8217 22.6765 12.7383ZM15.7708 16.6673V10.3328L20.5208 13.5L15.7708 16.6673ZM33.1989 4.66409C33.0666 4.15024 32.8142 3.67514 32.4625 3.27786C32.1108 2.88059 31.6698 2.5725 31.1758 2.37894C25.9778 0.366476 17.64 0.398468 17.2942 0.398468C16.9484 0.398468 8.6106 0.366476 3.40653 2.37894C2.91363 2.57329 2.47384 2.88173 2.12322 3.27896C1.7726 3.67618 1.52115 4.15088 1.3895 4.66409C1.00103 6.17077 0.536377 8.92972 0.536377 13.5C0.536377 18.0703 1.00103 20.8293 1.3895 22.336C1.52176 22.8498 1.77414 23.3249 2.12586 23.7222C2.47758 24.1195 2.91859 24.4276 3.41263 24.6211C8.6106 26.6336 16.9468 26.6016 17.2942 26.6016H17.4024C18.455 26.6016 26.2383 26.5346 31.1818 24.6211C31.6759 24.4276 32.1169 24.1195 32.4686 23.7222C32.8203 23.3249 33.0727 22.8498 33.205 22.336C33.5934 20.8323 34.0581 18.081 34.0581 13.5C34.0581 8.91905 33.595 6.17077 33.1989 4.66409ZM31.4286 21.8789C31.37 22.1131 31.2565 22.33 31.0976 22.5117C30.9387 22.6934 30.7388 22.8347 30.5146 22.924C25.6396 24.8024 17.3825 24.7735 17.2942 24.7735C17.2058 24.7735 8.95946 24.8039 4.07837 22.9194C3.85411 22.8301 3.65428 22.6888 3.49536 22.5071C3.33644 22.3254 3.22297 22.1085 3.16431 21.8744C2.79716 20.4743 2.3645 17.8845 2.3645 13.5C2.3645 9.11558 2.79716 6.52573 3.15974 5.12112C3.2184 4.88697 3.33187 4.6701 3.49079 4.4884C3.64971 4.3067 3.84954 4.16537 4.0738 4.07605C8.77208 2.2662 16.6132 2.22659 17.2576 2.22659H17.2942C17.3765 2.22659 25.6289 2.19612 30.51 4.08062C30.7343 4.16994 30.9341 4.31127 31.093 4.49297C31.2519 4.67467 31.3654 4.89154 31.4241 5.12569C31.7866 6.52573 32.2193 9.11558 32.2193 13.5046C32.2193 17.8936 31.7912 20.4743 31.4286 21.8789Z" fill="#F8F8F8"/>
</svg>
